<svg xmlns="http://www.w3.org/2000/svg" xmlns:xlink="http://www.w3.org/1999/xlink" width="500" zoomAndPan="magnify" viewBox="0 0 375 374.999991" height="500" preserveAspectRatio="xMidYMid meet" version="1.0"><defs><clipPath id="62faafa747"><path d="M 25.984375 25.984375 L 349.234375 25.984375 L 349.234375 349.234375 L 25.984375 349.234375 Z M 25.984375 25.984375 " clip-rule="nonzero"/></clipPath></defs><g clip-path="url(#62faafa747)"><path fill="#ffb800" d="M 187.496094 349.011719 C 276.714844 349.011719 349.011719 276.714844 349.011719 187.496094 C 349.011719 98.28125 276.714844 25.984375 187.496094 25.984375 C 98.28125 25.984375 25.984375 98.28125 25.984375 187.496094 C 25.984375 276.714844 98.28125 349.011719 187.496094 349.011719 Z M 117.894531 254.027344 L 125.96875 236.335938 C 127.121094 234.027344 128.660156 232.492188 130.96875 231.722656 C 131.738281 231.335938 132.890625 231.335938 133.660156 231.335938 C 135.199219 231.335938 136.351562 231.722656 137.890625 232.492188 C 149.8125 239.027344 166.347656 242.875 181.34375 242.875 C 199.035156 242.875 212.109375 235.566406 212.109375 225.570312 C 212.109375 219.03125 208.261719 211.339844 180.960938 202.496094 C 150.964844 193.265625 120.585938 179.421875 120.585938 148.65625 C 120.585938 125.199219 137.503906 107.125 165.960938 99.820312 L 170.191406 98.664062 L 170.191406 79.4375 C 170.191406 74.824219 174.039062 70.976562 178.652344 70.976562 L 199.035156 70.976562 C 203.648438 70.976562 207.496094 74.824219 207.496094 79.4375 L 207.496094 96.742188 L 212.492188 97.511719 C 224.800781 99.050781 235.566406 102.125 245.179688 106.742188 C 247.105469 107.894531 249.027344 109.433594 249.796875 111.738281 C 250.566406 114.046875 250.566406 116.355469 249.410156 118.277344 L 241.335938 135.199219 C 239.796875 138.273438 236.71875 140.195312 233.644531 140.195312 C 232.492188 140.195312 231.335938 139.8125 230.183594 139.429688 C 224.800781 137.121094 212.109375 131.351562 192.113281 131.351562 C 174.039062 131.351562 165.960938 138.273438 165.960938 145.582031 C 165.960938 153.273438 174.421875 158.65625 200.957031 167.5 C 229.03125 176.730469 257.871094 190.574219 257.871094 224.03125 C 257.871094 242.105469 245.179688 266.332031 210.1875 275.175781 L 205.570312 275.945312 L 205.570312 295.941406 C 205.570312 300.558594 201.726562 304.402344 197.109375 304.402344 L 176.34375 304.402344 C 171.730469 304.402344 167.886719 300.558594 167.886719 295.941406 L 167.886719 277.484375 L 162.886719 277.097656 C 147.117188 275.175781 132.121094 270.945312 122.121094 265.175781 C 117.507812 262.871094 115.96875 258.253906 117.894531 254.027344 Z M 117.894531 254.027344 " fill-opacity="1" fill-rule="nonzero"/></g></svg>