<svg xmlns="http://www.w3.org/2000/svg" xmlns:xlink="http://www.w3.org/1999/xlink" width="500" zoomAndPan="magnify" viewBox="0 0 375 374.999991" height="500" preserveAspectRatio="xMidYMid meet" version="1.0"><defs><filter x="0%" y="0%" width="100%" height="100%" id="e24b95d647"><feColorMatrix values="0 0 0 0 1 0 0 0 0 1 0 0 0 0 1 0 0 0 1 0" color-interpolation-filters="sRGB"/></filter><clipPath id="0548fc66e1"><path d="M 64 34 L 314 34 L 314 344 L 64 344 Z M 64 34 " clip-rule="nonzero"/></clipPath><clipPath id="07e35a795f"><path d="M 96.476562 -63.609375 L 426.78125 78.433594 L 278.050781 424.300781 L -52.253906 282.261719 Z M 96.476562 -63.609375 " clip-rule="nonzero"/></clipPath><clipPath id="c125fc2ada"><path d="M 96.476562 -63.609375 L 426.78125 78.433594 L 278.050781 424.300781 L -52.253906 282.261719 Z M 96.476562 -63.609375 " clip-rule="nonzero"/></clipPath><clipPath id="80adb6f58e"><path d="M 60 18 L 291 18 L 291 321 L 60 321 Z M 60 18 " clip-rule="nonzero"/></clipPath><clipPath id="65ffca03f1"><path d="M 96.476562 -63.609375 L 426.78125 78.433594 L 278.050781 424.300781 L -52.253906 282.261719 Z M 96.476562 -63.609375 " clip-rule="nonzero"/></clipPath><clipPath id="ec4fcc416f"><path d="M 96.476562 -63.609375 L 426.78125 78.433594 L 278.050781 424.300781 L -52.253906 282.261719 Z M 96.476562 -63.609375 " clip-rule="nonzero"/></clipPath><clipPath id="a6ce348a22"><path d="M 60 20 L 91 20 L 91 321 L 60 321 Z M 60 20 " clip-rule="nonzero"/></clipPath><clipPath id="27c054af9e"><path d="M 96.476562 -63.609375 L 426.78125 78.433594 L 278.050781 424.300781 L -52.253906 282.261719 Z M 96.476562 -63.609375 " clip-rule="nonzero"/></clipPath><clipPath id="3c80d3b75c"><path d="M 96.476562 -63.609375 L 426.78125 78.433594 L 278.050781 424.300781 L -52.253906 282.261719 Z M 96.476562 -63.609375 " clip-rule="nonzero"/></clipPath><clipPath id="cdb1fcfd79"><path d="M 0 71 L 312 71 L 312 375 L 0 375 Z M 0 71 " clip-rule="nonzero"/></clipPath><clipPath id="1e887d1467"><path d="M 96.476562 -63.609375 L 426.78125 78.433594 L 278.050781 424.300781 L -52.253906 282.261719 Z M 96.476562 -63.609375 " clip-rule="nonzero"/></clipPath><clipPath id="c336342fe9"><path d="M 96.476562 -63.609375 L 426.78125 78.433594 L 278.050781 424.300781 L -52.253906 282.261719 Z M 96.476562 -63.609375 " clip-rule="nonzero"/></clipPath><mask id="c7e2e00c7e"><g filter="url(#e24b95d647)"><rect x="-37.5" width="450" fill="#000000" y="-37.499999" height="449.999989" fill-opacity="0.4"/></g></mask><clipPath id="fab5426b4a"><path d="M 61 0.0390625 L 250 0.0390625 L 250 250 L 61 250 Z M 61 0.0390625 " clip-rule="nonzero"/></clipPath><clipPath id="34cfed7639"><path d="M 96.476562 -134.609375 L 426.78125 7.433594 L 278.050781 353.300781 L -52.253906 211.261719 Z M 96.476562 -134.609375 " clip-rule="nonzero"/></clipPath><clipPath id="ff7c3f9eb0"><path d="M 96.476562 -134.609375 L 426.78125 7.433594 L 278.050781 353.300781 L -52.253906 211.261719 Z M 96.476562 -134.609375 " clip-rule="nonzero"/></clipPath><clipPath id="bf9ef5c763"><rect x="0" width="312" y="0" height="304"/></clipPath><clipPath id="957b28c30f"><path d="M 73 25 L 307 25 L 307 338 L 73 338 Z M 73 25 " clip-rule="nonzero"/></clipPath><clipPath id="70230d2652"><path d="M 96.476562 -63.609375 L 426.78125 78.433594 L 278.050781 424.300781 L -52.253906 282.261719 Z M 96.476562 -63.609375 " clip-rule="nonzero"/></clipPath><clipPath id="2590815fba"><path d="M 96.476562 -63.609375 L 426.78125 78.433594 L 278.050781 424.300781 L -52.253906 282.261719 Z M 96.476562 -63.609375 " clip-rule="nonzero"/></clipPath><clipPath id="b411935835"><path d="M 124 107 L 231 107 L 231 214 L 124 214 Z M 124 107 " clip-rule="nonzero"/></clipPath><clipPath id="08056d5144"><path d="M 123.453125 109.140625 L 228.839844 106.589844 L 231.386719 211.976562 L 126 214.527344 Z M 123.453125 109.140625 " clip-rule="nonzero"/></clipPath><clipPath id="3460c20f47"><path d="M 123.453125 109.140625 L 228.839844 106.589844 L 231.386719 211.976562 L 126 214.527344 Z M 123.453125 109.140625 " clip-rule="nonzero"/></clipPath><clipPath id="95a968ba75"><path d="M 123.453125 109.140625 L 228.839844 106.589844 L 231.386719 211.976562 L 126 214.527344 Z M 123.453125 109.140625 " clip-rule="nonzero"/></clipPath></defs><g clip-path="url(#0548fc66e1)"><g clip-path="url(#07e35a795f)"><g clip-path="url(#c125fc2ada)"><path fill="#ffb800" d="M 262.183594 34.777344 C 278.53125 38.792969 294.890625 42.816406 311.238281 46.832031 C 311.96875 145.589844 312.691406 244.328125 313.417969 343.085938 C 238.171875 342.871094 162.9375 342.65625 87.691406 342.441406 C 79.824219 335.039062 71.964844 327.636719 64.089844 320.242188 C 130.121094 225.074219 196.152344 129.917969 262.183594 34.777344 Z M 262.183594 34.777344 " fill-opacity="1" fill-rule="nonzero"/></g></g></g><g clip-path="url(#80adb6f58e)"><g clip-path="url(#65ffca03f1)"><g clip-path="url(#ec4fcc416f)"><path fill="#ffb800" d="M 60.464844 20.34375 L 287.285156 18.445312 L 290.914062 318.332031 L 64.09375 320.230469 Z M 60.464844 20.34375 " fill-opacity="1" fill-rule="nonzero"/></g></g></g><g clip-path="url(#a6ce348a22)"><g clip-path="url(#27c054af9e)"><g clip-path="url(#3c80d3b75c)"><path fill="#ffb800" d="M 60.464844 20.34375 L 84.871094 20.144531 L 90.226562 319.738281 L 64.09375 320.230469 Z M 60.464844 20.34375 " fill-opacity="1" fill-rule="nonzero"/></g></g></g><g clip-path="url(#cdb1fcfd79)"><g clip-path="url(#1e887d1467)"><g clip-path="url(#c336342fe9)"><g mask="url(#c7e2e00c7e)"><g transform="matrix(1, 0, 0, 1, 0, 71)"><g clip-path="url(#bf9ef5c763)"><g clip-path="url(#fab5426b4a)"><g clip-path="url(#34cfed7639)"><g clip-path="url(#ff7c3f9eb0)"><path fill="#ef312d" d="M 61.085938 0.628906 L 64.09375 249.230469 L 249.894531 247.667969 C 138.558594 165.855469 85.761719 68.058594 61.085938 0.628906 Z M 61.085938 0.628906 " fill-opacity="1" fill-rule="nonzero"/></g></g></g></g></g></g></g></g></g><g clip-path="url(#957b28c30f)"><g clip-path="url(#70230d2652)"><g clip-path="url(#2590815fba)"><path fill="#e9eaea" d="M 73.519531 320.15625 L 90.277344 336.433594 L 306.890625 337.25 L 306.003906 45.539062 L 287.367188 25.992188 C 288.550781 123.441406 289.734375 220.882812 290.902344 318.328125 C 218.453125 318.933594 145.988281 319.542969 73.519531 320.15625 Z M 73.519531 320.15625 " fill-opacity="1" fill-rule="nonzero"/></g></g></g><g clip-path="url(#b411935835)"><g clip-path="url(#08056d5144)"><g clip-path="url(#3460c20f47)"><g clip-path="url(#95a968ba75)"><path fill="#000000" d="M 178.695312 213.253906 C 207.800781 212.546875 230.816406 188.390625 230.113281 159.285156 C 229.410156 130.175781 205.253906 107.160156 176.144531 107.863281 C 147.039062 108.570312 124.023438 132.726562 124.726562 161.832031 C 125.429688 190.941406 149.585938 213.957031 178.695312 213.253906 Z M 155.238281 182.8125 L 157.730469 176.976562 C 158.089844 176.214844 158.578125 175.703125 159.324219 175.433594 C 159.574219 175.300781 159.949219 175.292969 160.203125 175.285156 C 160.703125 175.273438 161.082031 175.390625 161.589844 175.628906 C 165.53125 177.667969 170.957031 178.792969 175.847656 178.671875 C 181.621094 178.535156 185.828125 176.046875 185.75 172.785156 C 185.699219 170.652344 184.382812 168.171875 175.40625 165.503906 C 165.546875 162.730469 155.527344 158.453125 155.28125 148.414062 C 155.097656 140.761719 160.476562 134.730469 169.703125 132.125 L 171.074219 131.714844 L 170.921875 125.441406 C 170.886719 123.933594 172.109375 122.648438 173.613281 122.613281 L 180.265625 122.453125 C 181.769531 122.417969 183.054688 123.640625 183.089844 125.144531 L 183.226562 130.792969 L 184.863281 131.003906 C 188.890625 131.410156 192.429688 132.328125 195.601562 133.757812 C 196.238281 134.117188 196.878906 134.605469 197.148438 135.351562 C 197.414062 136.097656 197.433594 136.851562 197.074219 137.488281 L 194.570312 143.070312 C 194.09375 144.085938 193.105469 144.738281 192.101562 144.761719 C 191.726562 144.773438 191.347656 144.65625 190.964844 144.539062 C 189.191406 143.828125 185.007812 142.046875 178.480469 142.203125 C 172.585938 142.347656 170.003906 144.667969 170.0625 147.054688 C 170.125 149.5625 172.925781 151.253906 181.652344 153.929688 C 190.882812 156.71875 200.402344 161.007812 200.667969 171.921875 C 200.808594 177.820312 196.859375 185.824219 185.515625 188.984375 L 184.015625 189.273438 L 184.171875 195.796875 C 184.207031 197.300781 182.984375 198.585938 181.480469 198.621094 L 174.703125 198.785156 C 173.199219 198.824219 171.914062 197.597656 171.878906 196.09375 L 171.730469 190.070312 L 170.097656 189.984375 C 164.9375 189.480469 160.011719 188.21875 156.703125 186.417969 C 155.179688 185.703125 154.640625 184.207031 155.238281 182.8125 Z M 155.238281 182.8125 " fill-opacity="1" fill-rule="nonzero"/></g></g></g></g></svg>